# AST/ASF file generated using VICON BodyLanguage
# -----------------------------------------------
:version 1.10
:name VICON
:units
  mass 1.0
  length 0.45
  angle deg
:documentation
   .ast/.asf automatically generated from VICON data using
   VICON BodyBuilder and BodyLanguage model FoxedUp or BRILLIANT.MOD
:root
   order TX TY TZ RX RY RZ
   axis XYZ
   position 0 0 0  
   orientation 0 0 0 
:bonedata
  begin
     id 1 
     name lhipjoint
     direction 0.577973 -0.728611 0.367523 
     length 2.48544 
     axis 0 0 0  XYZ
  end
  begin
     id 2 
     name lfemur
     direction 0.34202 -0.939693 0  
     length 7.1921  
     axis 0 0 20  XYZ
    dof rx ry rz
    limits (-160.0 20.0)
           (-70.0 70.0)
           (-60.0 70.0)
  end
  begin
     id 3 
     name ltibia
     direction 0.34202 -0.939693 0   
     length 7.71059   
     axis 0 0 20   XYZ
    dof rx
    limits (-10.0 170.0)
  end
  begin
     id 4 
     name lfoot
     direction 0.089538 -0.246004 0.965124   
     length 2.19909   
     axis -90 7.62852e-016 20   XYZ
    dof rx rz
    limits (-45.0 90.0)
           (-70.0 20.0)
  end
  begin
     id 5 
     name ltoes
     direction 1.53544e-011 -4.21829e-011 1   
     length 1.10116   
     axis -90 7.62852e-016 20   XYZ
    dof rx
    limits (-90.0 20.0)
  end
  begin
     id 6 
     name rhipjoint
     direction -0.554414 -0.743062 0.374812   
     length 2.4371  
     axis 0 0 0  XYZ 
  end
  begin
     id 7 
     name rfemur
     direction -0.34202 -0.939693 0   
     length 7.47254   
     axis 0 0 -20   XYZ
    dof rx ry rz
    limits (-160.0 20.0)
           (-70.0 70.0)
           (-70.0 60.0)
  end
  begin
     id 8 
     name rtibia
     direction -0.34202 -0.939693 0   
     length 7.65855   
     axis 0 0 -20   XYZ
    dof rx
    limits (-10.0 170.0)
 end
 begin
     id 9 
     name rfoot
     direction -0.133779 -0.367555 0.92033   
     length 2.43006  
     axis -90 -7.62852e-016 -20   XYZ
    dof rx rz
    limits (-45.0 90.0)
           (-20.0 70.0)
  end
  begin
     id 10 
     name rtoes
     direction -1.53563e-011 -4.21889e-011 1   
     length 1.19625   
     axis -90 -7.62852e-016 -20   XYZ
    dof rx
    limits (-90.0 20.0)
  end
  begin
     id 11 
     name lowerback
     direction 0.0249066 0.998043 -0.0573585   
     length 2.08485   
     axis 0 0 0   XYZ
    dof rx ry rz
    limits (-20.0 45.0)
           (-30.0 30.0)
           (-30.0 30.0)
  end
  begin
     id 12 
     name upperback
     direction 0.0237884 0.999673 0.00943178   
     length 2.08515   
     axis 0 0 0   XYZ
    dof rx ry rz
    limits (-20.0 45.0)
           (-30.0 30.0)
           (-30.0 30.0)
  end
  begin
     id 13 
     name thorax
     direction 0.0106671 0.999301 0.0358174   
     length 2.09037   
     axis 0 0 0   XYZ
    dof rx ry rz
    limits (-20.0 45.0)
           (-30.0 30.0)
           (-30.0 30.0)
  end
  begin
     id 14 
     name lowerneck
     direction -0.0580016 0.987052 0.149546   
     length 1.84454   
     axis 0 0 0   XYZ
    dof rx ry rz
    limits (-20.0 45.0)
           (-30.0 30.0)
           (-30.0 30.0)
  end
  begin
     id 15 
     name upperneck
     direction 0.079456 0.981963 -0.171567   
     length 1.88141   
     axis 0 0 0   XYZ
    dof rx ry rz
    limits (-20.0 45.0)
           (-30.0 30.0)
           (-30.0 30.0)
  end
  begin
     id 16
     name head
     direction 0.0262167 0.9967 -0.0768276  
     length 1.89541  
     axis 0 0 0   XYZ
    dof rx ry rz
    limits (-20.0 45.0)
           (-30.0 30.0)
           (-30.0 30.0)
  end
  begin
     id 17 
     name lclavicle
     direction 0.946135 0.322134 -0.0325326  
     length 3.949  
     axis 0 0 0   XYZ
    dof ry rz
    limits (-20.0 10.0)
           (0.0 20.0)
  end
  begin
     id 18 
     name lhumerus
     direction 1 -4.48964e-011 1.94005e-028   
     length 5.10995   
     axis 180 -30 -90   XYZ
    dof rx ry rz
    limits (-60.0 90.0)
           (-90.0 90.0)
           (-90.0 90.0)
  end
  begin
     id 19
     name lradius
     direction 1 -4.48976e-011 2.87852e-027   
     length 3.21207   
     axis 180 -30 -90   XYZ
    dof rx
    limits (-10.0 170.0)
  end
  begin
     id 20
     name lwrist
     direction 1 -4.48963e-011 1.9975e-027   
     length 1.60604   
     axis 2.96054e-016 90 90   XYZ
    dof ry
    limits (-180.0 0.0)
 end
  begin
     id 21 
     name lhand
     direction 1 -4.48919e-011 4.00227e-027   
     length 0.63349   
     axis -2.5488e-015 90 90   XYZ
    dof rx rz
    limits (-90.0 90.0)
           (-45.0 45.0)
  end
  begin
     id 22 
     name lfingers
     direction 1 -4.49037e-011 7.9652e-027   
     length 0.510736   
     axis -5.0975e-015 90 90   XYZ
    dof rx
    limits (0.0 90.0)
  end
  begin
     id 23
     name lthumb
     direction 0.707107 -6.34922e-011 0.707107   
     length 0.733318   
     axis -90 45 -4.48553e-014   XYZ
    dof rx rz
    limits (-45.0 45.0)
           (-45.0 45.0)
  end
  begin
     id 24 
     name rclavicle
     direction -0.940085 0.328911 -0.0897654   
     length 3.93848  
     axis 0 0 0   XYZ 
    dof ry rz
    limits (-10.0 20.0)
           (-20.0 0.0)
  end
  begin
     id 25 
     name rhumerus
     direction -1 -4.48958e-011 3.02044e-027  
     length 5.25109   
     axis 180 30 90   XYZ
    dof rx ry rz
    limits (-90.0 60.0)
           (-90.0 90.0)
           (-90.0 90.0)
  end
  begin
     id 26 
     name rradius
     direction -1 -4.4897e-011 9.78352e-028   
     length 3.28364   
     axis 180 30 90   XYZ
    dof rx
    limits (-10.0 170.0)
  end
  begin
     id 27 
     name rwrist
     direction -1 -4.48943e-011 1.99918e-027   
     length 1.64182   
     axis 2.96054e-016 -90 -90   XYZ
    dof ry
    limits (-180.0 0.0)
  end
  begin
     id 28
     name rhand
     direction -1 -4.49024e-011 3.98478e-027   
     length 0.599745   
     axis -2.5488e-015 -90 -90   XYZ
    dof rx rz
    limits (-90.0 90.0)
           (-45.0 45.0)
  end
  begin
     id 29
     name rfingers
     direction -1 -4.48914e-011 8.00621e-027   
     length 0.48353   
     axis -5.0975e-015 -90 -90   XYZ
    dof rx
    limits (0.0 90.0)
  end
  begin
     id 30
     name rthumb
     direction -0.707107 -6.34992e-011 0.707107   
     length 0.694255   
     axis -90 -45 4.48553e-014   XYZ
    dof rx rz
    limits (-45.0 45.0)
           (-45.0 45.0)
  end
:hierarchy
  begin
    root lhipjoint rhipjoint lowerback
    lhipjoint lfemur
    lfemur ltibia
    ltibia lfoot
    lfoot ltoes
    rhipjoint rfemur
    rfemur rtibia
    rtibia rfoot
    rfoot rtoes
    lowerback upperback
    upperback thorax
    thorax lowerneck lclavicle rclavicle
    lowerneck upperneck
    upperneck head
    lclavicle lhumerus
    lhumerus lradius
    lradius lwrist
    lwrist lhand lthumb
    lhand lfingers
    rclavicle rhumerus
    rhumerus rradius
    rradius rwrist
    rwrist rhand rthumb
    rhand rfingers
  end

#!OML:ASF E:\CV Data\Top Level 1\Subject 1\Session 1\player.ASF
:FULLY-SPECIFIED
:DEGREES
418
root 9.63781 16.5421 -9.65613 -5.7681 -93.9283 -343.385
lowerback 24.0071 0.480834 0.0409466
upperback 5.08116 0.310642 0.819311
thorax -7.7708 -0.0127385 0.803439
lowerneck -17.7062 17.7919 -2.92791
upperneck 7.8021 24.9872 -4.05803
head 5.28116 11.8292 1.51592
rclavicle -7.70291e-015 5.06901e-015
rhumerus 0.680437 7.43296 -75.9872
rradius 130.799
rwrist -22.1379
rhand -36.9857 15.9856
rfingers 7.12502
rthumb -10.0608 -13.754
lclavicle -7.70291e-015 5.06901e-015
lhumerus 62.0605 -55.6401 57.2011
lradius 72.8037
lwrist -4.76762
lhand -24.4199 -4.27965
lfingers 7.12502
lthumb 2.07187 25.69
rfemur -39.6382 1.4619 12.8162
rtibia 53.3412
rfoot -25.541 1.75898
rtoes -8.52783
lfemur -36.1676 10.5789 -8.13979
ltibia 44.552
lfoot -14.2326 -1.7665
ltoes -12.6979
419
root 9.6377 16.5457 -9.66541 -5.66164 -93.93 -343.454
lowerback 23.9907 0.432656 0.169808
upperback 5.08158 0.274969 0.762225
thorax -7.7602 -0.0325416 0.677603
lowerneck -17.7097 17.8223 -2.86669
upperneck 7.83487 25.0255 -4.11376
head 5.30694 11.8428 1.50181
rclavicle 4.00054e-015 -1.2921e-015
rhumerus 0.341764 7.5251 -76.0088
rradius 130.754
rwrist -22.3998
rhand -37.018 15.7875
rfingers 7.12502
rthumb -10.092 -13.9505
lclavicle 4.00054e-015 -1.2921e-015
lhumerus 61.3116 -55.9165 57.7268
lradius 72.8631
lwrist -4.49405
lhand -24.2991 -4.15653
lfingers 7.12502
lthumb 2.18845 25.812
rfemur -39.6654 1.54584 12.8287
rtibia 53.3117
rfoot -25.4696 1.70759
rtoes -8.4459
lfemur -36.1455 10.4933 -8.09977
ltibia 44.4551
lfoot -14.1694 -1.67713
ltoes -12.7019
420
root 9.63759 16.5489 -9.6759 -5.52665 -93.9235 -343.553
lowerback 23.9832 0.389102 0.289604
upperback 5.07938 0.242826 0.700703
thorax -7.7573 -0.0504417 0.551098
lowerneck -17.7089 17.8418 -2.80355
upperneck 7.8576 25.0464 -4.15955
head 5.32773 11.8493 1.48744
rclavicle 7.20594e-016 -2.85753e-014
rhumerus -0.00908223 7.63615 -76.0494
rradius 130.682
rwrist -22.668
rhand -37.019 15.5658
rfingers 7.12502
rthumb -10.093 -14.1722
lclavicle 7.20594e-016 -2.85753e-014
lhumerus 60.502 -56.1924 58.2696
lradius 72.9322
lwrist -4.17992
lhand -24.1769 -4.01571
lfingers 7.12502
lthumb 2.30652 25.9516
rfemur -39.6914 1.62894 12.8431
rtibia 53.2901
rfoot -25.4041 1.6462
rtoes -8.34193
lfemur -36.1267 10.4291 -8.06475
ltibia 44.3632
lfoot -14.1091 -1.6102
ltoes -12.6988
421
root 9.63718 16.5519 -9.68716 -5.3091 -93.905 -343.741
lowerback 23.9822 0.35519 0.380484
upperback 5.07745 0.217038 0.650439
thorax -7.75792 -0.0647029 0.451635
lowerneck -17.7008 17.8467 -2.7487
upperneck 7.86094 25.0471 -4.20251
head 5.33987 11.8474 1.47081
rclavicle -6.95746e-015 -3.72721e-015
rhumerus -0.364125 7.7647 -76.0813
rradius 130.586
rwrist -22.9389
rhand -36.9858 15.308
rfingers 7.12502
rthumb -10.0609 -14.4315
lclavicle -6.95746e-015 -3.72721e-015
lhumerus 59.6278 -56.4581 58.8664
lradius 72.9962
lwrist -3.8363
lhand -24.0611 -3.88078
lfingers 7.12502
lthumb 2.41833 26.0853
rfemur -39.7112 1.70554 12.8515
rtibia 53.2766
rfoot -25.3472 1.57648
rtoes -8.26158
lfemur -36.106 10.3663 -8.03899
ltibia 44.2746
lfoot -14.0502 -1.54976
ltoes -12.6811
422
root 9.63659 16.5547 -9.69949 -5.03952 -93.8733 -343.986
lowerback 23.9839 0.334176 0.429329
upperback 5.07731 0.199508 0.622492
thorax -7.75845 -0.0741147 0.398257
lowerneck -17.6812 17.8425 -2.6768
upperneck 7.85232 25.036 -4.28415
head 5.35377 11.8377 1.43975
rclavicle -3.65267e-015 -9.74045e-015
rhumerus -0.714809 7.91729 -76.0897
rradius 130.461
rwrist -23.2006
rhand -36.9307 15.0198
rfingers 7.12502
rthumb -10.0077 -14.7223
lclavicle -3.65267e-015 -9.74045e-015
lhumerus 58.6941 -56.7079 59.5324
lradius 73.0435
lwrist -3.47452
lhand -23.9753 -3.7561
lfingers 7.12502
lthumb 2.50122 26.209
rfemur -39.7269 1.77322 12.8564
rtibia 53.2726
rfoot -25.2996 1.50729
rtoes -8.17083
lfemur -36.0868 10.3113 -8.02226
ltibia 44.1902
lfoot -13.9937 -1.49676
ltoes -12.6918
423
root 9.63575 16.557 -9.71248 -4.74709 -93.8297 -344.257
lowerback 23.9856 0.328171 0.436449
upperback 5.07987 0.19336 0.621197
thorax -7.75642 -0.0771813 0.394583
lowerneck -17.6626 17.818 -2.65358
upperneck 7.83468 25.0052 -4.34898
head 5.35698 11.819 1.41532
rclavicle 2.65874e-015 1.2424e-014
rhumerus -1.05825 8.08713 -76.07
rradius 130.306
rwrist -23.4619
rhand -36.851 14.717
rfingers 7.12502
rthumb -9.93093 -15.0288
lclavicle 2.65874e-015 1.2424e-014
lhumerus 57.7096 -56.9376 60.2659
lradius 73.0787
lwrist -3.09999
lhand -23.9218 -3.63602
lfingers 7.12502
lthumb 2.55287 26.3284
rfemur -39.7394 1.83235 12.8593
rtibia 53.2779
rfoot -25.2615 1.4374
rtoes -8.09378
lfemur -36.0708 10.2687 -8.01417
ltibia 44.1117
lfoot -13.9402 -1.45423
ltoes -12.7323
424
root 9.63456 16.5589 -9.7261 -4.4897 -93.7748 -344.495
lowerback 23.9831 0.33601 0.403235
upperback 5.08534 0.197654 0.648967
thorax -7.74942 -0.0743471 0.442729
lowerneck -17.6502 17.779 -2.66654
upperneck 7.82448 24.9625 -4.40388
head 5.358 11.7939 1.39684
rclavicle 1.2598e-014 1.15295e-014
rhumerus -1.39022 8.27709 -76.0231
rradius 130.121
rwrist -23.7262
rhand -36.7529 14.4049
rfingers 7.12502
rthumb -9.83628 -15.3453
lclavicle 1.2598e-014 1.15295e-014
lhumerus 56.6725 -57.1439 61.0814
lradius 73.0879
lwrist -2.72531
lhand -23.8931 -3.52832
lfingers 7.12502
lthumb 2.58058 26.4358
rfemur -39.751 1.87704 12.8661
rtibia 53.2927
rfoot -25.2329 1.37321
rtoes -8.02308
lfemur -36.0615 10.2354 -8.01028
ltibia 44.0418
lfoot -13.8898 -1.41651
ltoes -12.823
425
root 9.63312 16.5602 -9.74038 -4.31312 -93.7127 -344.647
lowerback 23.9694 0.356668 0.343472
upperback 5.09277 0.213885 0.698091
thorax -7.73485 -0.0651579 0.52587
lowerneck -17.6463 17.7275 -2.72062
upperneck 7.81898 24.9087 -4.43187
head 5.35339 11.7642 1.38927
rclavicle -6.4605e-016 -1.64991e-014
rhumerus -1.71072 8.47696 -75.9617
rradius 129.907
rwrist -24.0022
rhand -36.6361 14.0989
rfingers 7.12502
rthumb -9.72357 -15.6566
lclavicle -6.4605e-016 -1.64991e-014
lhumerus 55.5895 -57.3273 61.9571
lradius 73.0862
lwrist -2.35217
lhand -23.8613 -3.43992
lfingers 7.12502
lthumb 2.61132 26.5238
rfemur -39.7708 1.9057 12.8826
rtibia 53.3172
rfoot -25.2097 1.32168
rtoes -7.94896
lfemur -36.0653 10.2117 -8.00379
ltibia 43.9825
lfoot -13.8434 -1.38381
ltoes -12.9435
426
root 9.63144 16.5609 -9.75489 -4.29439 -93.6404 -344.642
lowerback 23.9557 0.381516 0.278605
upperback 5.10219 0.235268 0.759904
thorax -7.71821 -0.0534144 0.624292
lowerneck -17.6551 17.6684 -2.81061
upperneck 7.82118 24.849 -4.4271
head 5.34454 11.7329 1.39467
rclavicle 1.41137e-014 2.5842e-015
rhumerus -2.02171 8.68608 -75.8987
rradius 129.667
rwrist -24.2994
rhand -36.5011 13.8088
rfingers 7.12502
rthumb -9.59334 -15.9528
lclavicle 1.41137e-014 2.5842e-015
lhumerus 54.4666 -57.4879 62.8713
lradius 73.0773
lwrist -1.98377
lhand -23.8306 -3.34748
lfingers 7.12502
lthumb 2.64097 26.6159
rfemur -39.7906 1.91676 12.9114
rtibia 53.3516
rfoot -25.1936 1.28049
rtoes -7.87515
lfemur -36.077 10.1888 -7.98859
ltibia 43.9357
lfoot -13.8015 -1.36075
ltoes -13.0591
427
root 9.62927 16.5611 -9.76956 -4.35493 -93.5613 -344.561
lowerback 23.9441 0.407953 0.220439
upperback 5.11301 0.259966 0.818748
thorax -7.7012 -0.0403121 0.714637
lowerneck -17.6789 17.6045 -2.92802
upperneck 7.83109 24.7836 -4.37564
head 5.33092 11.7012 1.41606
rclavicle 2.98177e-015 3.8763e-015
rhumerus -2.33092 8.90117 -75.8542
rradius 129.4
rwrist -24.5929
rhand -36.3666 13.552
rfingers 7.12502
rthumb -9.46355 -16.2155
lclavicle 2.98177e-015 3.8763e-015
lhumerus 53.3017 -57.6322 63.8118
lradius 73.0657
lwrist -1.63107
lhand -23.7748 -3.27253
lfingers 7.12502
lthumb 2.6948 26.6902
rfemur -39.8096 1.90409 12.9476
rtibia 53.3963
rfoot -25.185 1.26482
rtoes -7.72594
lfemur -36.0928 10.1641 -7.96985
ltibia 43.9023
lfoot -13.7676 -1.3399
ltoes -13.1809
